<?xml version="1.0" encoding="UTF-8" standalone="no"?>
<svg
   xmlns:dc="http://purl.org/dc/elements/1.1/"
   xmlns:cc="http://creativecommons.org/ns#"
   xmlns:rdf="http://www.w3.org/1999/02/22-rdf-syntax-ns#"
   xmlns:svg="http://www.w3.org/2000/svg"
   xmlns="http://www.w3.org/2000/svg"
   viewBox="0 0 576 366.66666"
   height="366.66666"
   width="576"
   xml:space="preserve"
   id="svg2"
   version="1.1"><metadata
     id="metadata8"><rdf:RDF><cc:Work
         rdf:about=""><dc:format>image/svg+xml</dc:format><dc:type
           rdf:resource="http://purl.org/dc/dcmitype/StillImage" /></cc:Work></rdf:RDF></metadata><defs
     id="defs6" /><g
     transform="matrix(1.3333333,0,0,1.3333333,0,1.25e-5)"
     id="g10"><g
       id="g12"><path
         id="path14"
         style="fill:none;stroke:#ff8000;stroke-width:1.20000005;stroke-linecap:square;stroke-linejoin:miter;stroke-miterlimit:3.25;stroke-dasharray:none;stroke-opacity:1"
         d="M 129.609,123.656 V 83.012" /><path
         id="path16"
         style="fill:none;stroke:#ff8000;stroke-width:1.20000005;stroke-linecap:square;stroke-linejoin:miter;stroke-miterlimit:3.25;stroke-dasharray:none;stroke-opacity:1"
         d="M 129.609,83.012 V 42.371" /><path
         id="path18"
         style="fill:none;stroke:#ff8000;stroke-width:1.20000005;stroke-linecap:square;stroke-linejoin:miter;stroke-miterlimit:3.25;stroke-dasharray:none;stroke-opacity:1"
         d="M 203.145,160.527 V 115.074" /><path
         id="path20"
         style="fill:none;stroke:#ff8000;stroke-width:1.20000005;stroke-linecap:square;stroke-linejoin:miter;stroke-miterlimit:3.25;stroke-dasharray:none;stroke-opacity:1"
         d="M 203.145,115.074 V 69.621" /><path
         id="path22"
         style="fill:none;stroke:#ff8000;stroke-width:1.20000005;stroke-linecap:square;stroke-linejoin:miter;stroke-miterlimit:3.25;stroke-dasharray:none;stroke-opacity:1"
         d="M 276.676,176.367 V 129.063" /><path
         id="path24"
         style="fill:none;stroke:#ff8000;stroke-width:1.20000005;stroke-linecap:square;stroke-linejoin:miter;stroke-miterlimit:3.25;stroke-dasharray:none;stroke-opacity:1"
         d="M 276.676,129.063 V 81.754" /><path
         id="path26"
         style="fill:none;stroke:#ff8000;stroke-width:1.20000005;stroke-linecap:square;stroke-linejoin:miter;stroke-miterlimit:3.25;stroke-dasharray:none;stroke-opacity:1"
         d="M 350.207,154.914 V 109.695" /><path
         id="path28"
         style="fill:none;stroke:#ff8000;stroke-width:1.20000005;stroke-linecap:square;stroke-linejoin:miter;stroke-miterlimit:3.25;stroke-dasharray:none;stroke-opacity:1"
         d="M 350.207,109.695 V 64.477" /><path
         id="path30"
         style="fill:none;stroke:#ff8000;stroke-width:1.20000005;stroke-linecap:square;stroke-linejoin:miter;stroke-miterlimit:3.25;stroke-dasharray:none;stroke-opacity:1"
         d="m 129.609,42.371 h 3.602" /><path
         id="path32"
         style="fill:none;stroke:#ff8000;stroke-width:1.20000005;stroke-linecap:square;stroke-linejoin:miter;stroke-miterlimit:3.25;stroke-dasharray:none;stroke-opacity:1"
         d="m 129.609,42.371 h -3.597" /><path
         id="path34"
         style="fill:none;stroke:#ff8000;stroke-width:1.20000005;stroke-linecap:square;stroke-linejoin:miter;stroke-miterlimit:3.25;stroke-dasharray:none;stroke-opacity:1"
         d="m 129.609,123.656 h 3.602" /><path
         id="path36"
         style="fill:none;stroke:#ff8000;stroke-width:1.20000005;stroke-linecap:square;stroke-linejoin:miter;stroke-miterlimit:3.25;stroke-dasharray:none;stroke-opacity:1"
         d="m 129.609,123.656 h -3.597" /><path
         id="path38"
         style="fill:none;stroke:#ff8000;stroke-width:1.20000005;stroke-linecap:square;stroke-linejoin:miter;stroke-miterlimit:3.25;stroke-dasharray:none;stroke-opacity:1"
         d="m 203.145,69.621 h 3.597" /><path
         id="path40"
         style="fill:none;stroke:#ff8000;stroke-width:1.20000005;stroke-linecap:square;stroke-linejoin:miter;stroke-miterlimit:3.25;stroke-dasharray:none;stroke-opacity:1"
         d="m 203.145,69.621 h -3.602" /><path
         id="path42"
         style="fill:none;stroke:#ff8000;stroke-width:1.20000005;stroke-linecap:square;stroke-linejoin:miter;stroke-miterlimit:3.25;stroke-dasharray:none;stroke-opacity:1"
         d="m 203.145,160.527 h 3.597" /><path
         id="path44"
         style="fill:none;stroke:#ff8000;stroke-width:1.20000005;stroke-linecap:square;stroke-linejoin:miter;stroke-miterlimit:3.25;stroke-dasharray:none;stroke-opacity:1"
         d="m 203.145,160.527 h -3.602" /><path
         id="path46"
         style="fill:none;stroke:#ff8000;stroke-width:1.20000005;stroke-linecap:square;stroke-linejoin:miter;stroke-miterlimit:3.25;stroke-dasharray:none;stroke-opacity:1"
         d="m 276.676,81.754 h 3.601" /><path
         id="path48"
         style="fill:none;stroke:#ff8000;stroke-width:1.20000005;stroke-linecap:square;stroke-linejoin:miter;stroke-miterlimit:3.25;stroke-dasharray:none;stroke-opacity:1"
         d="m 276.676,81.754 h -3.602" /><path
         id="path50"
         style="fill:none;stroke:#ff8000;stroke-width:1.20000005;stroke-linecap:square;stroke-linejoin:miter;stroke-miterlimit:3.25;stroke-dasharray:none;stroke-opacity:1"
         d="m 276.676,176.367 h 3.601" /><path
         id="path52"
         style="fill:none;stroke:#ff8000;stroke-width:1.20000005;stroke-linecap:square;stroke-linejoin:miter;stroke-miterlimit:3.25;stroke-dasharray:none;stroke-opacity:1"
         d="m 276.676,176.367 h -3.602" /><path
         id="path54"
         style="fill:none;stroke:#ff8000;stroke-width:1.20000005;stroke-linecap:square;stroke-linejoin:miter;stroke-miterlimit:3.25;stroke-dasharray:none;stroke-opacity:1"
         d="m 350.207,64.477 h 3.602" /><path
         id="path56"
         style="fill:none;stroke:#ff8000;stroke-width:1.20000005;stroke-linecap:square;stroke-linejoin:miter;stroke-miterlimit:3.25;stroke-dasharray:none;stroke-opacity:1"
         d="m 350.207,64.477 h -3.598" /><path
         id="path58"
         style="fill:none;stroke:#ff8000;stroke-width:1.20000005;stroke-linecap:square;stroke-linejoin:miter;stroke-miterlimit:3.25;stroke-dasharray:none;stroke-opacity:1"
         d="m 350.207,154.914 h 3.602" /><path
         id="path60"
         style="fill:none;stroke:#ff8000;stroke-width:1.20000005;stroke-linecap:square;stroke-linejoin:miter;stroke-miterlimit:3.25;stroke-dasharray:none;stroke-opacity:1"
         d="m 350.207,154.914 h -3.598" /><path
         id="path62"
         style="fill:#ff8000;fill-opacity:1;fill-rule:evenodd;stroke:none"
         d="m 132.066,83.012 c 0,-0.653 -0.257,-1.278 -0.718,-1.739 -0.461,-0.457 -1.086,-0.718 -1.739,-0.718 -0.648,0 -1.277,0.261 -1.734,0.718 -0.461,0.461 -0.723,1.086 -0.723,1.739 0,0.652 0.262,1.277 0.723,1.738 0.457,0.461 1.086,0.719 1.734,0.719 0.653,0 1.278,-0.258 1.739,-0.719 0.461,-0.461 0.718,-1.086 0.718,-1.738 z" /><path
         id="path64"
         style="fill:#ff8000;fill-opacity:1;fill-rule:evenodd;stroke:none"
         d="m 205.602,115.074 c 0,-0.652 -0.262,-1.277 -0.719,-1.738 -0.461,-0.461 -1.086,-0.719 -1.738,-0.719 -0.653,0 -1.278,0.258 -1.739,0.719 -0.461,0.461 -0.718,1.086 -0.718,1.738 0,0.653 0.257,1.278 0.718,1.739 0.461,0.46 1.086,0.718 1.739,0.718 0.652,0 1.277,-0.258 1.738,-0.718 0.457,-0.461 0.719,-1.086 0.719,-1.739 z" /><path
         id="path66"
         style="fill:#ff8000;fill-opacity:1;fill-rule:evenodd;stroke:none"
         d="m 279.133,129.063 c 0,-0.653 -0.258,-1.278 -0.719,-1.739 -0.461,-0.461 -1.086,-0.719 -1.738,-0.719 -0.653,0 -1.278,0.258 -1.738,0.719 -0.461,0.461 -0.719,1.086 -0.719,1.739 0,0.648 0.258,1.273 0.719,1.734 0.46,0.461 1.085,0.723 1.738,0.723 0.652,0 1.277,-0.262 1.738,-0.723 0.461,-0.461 0.719,-1.086 0.719,-1.734 z" /><path
         id="path68"
         style="fill:#ff8000;fill-opacity:1;fill-rule:evenodd;stroke:none"
         d="m 352.664,109.695 c 0,-0.652 -0.258,-1.277 -0.719,-1.738 -0.461,-0.461 -1.086,-0.719 -1.738,-0.719 -0.652,0 -1.277,0.258 -1.738,0.719 -0.461,0.461 -0.719,1.086 -0.719,1.738 0,0.653 0.258,1.278 0.719,1.739 0.461,0.461 1.086,0.718 1.738,0.718 0.652,0 1.277,-0.257 1.738,-0.718 0.461,-0.461 0.719,-1.086 0.719,-1.739 z" /><path
         id="path70"
         style="fill:none;stroke:#0000ff;stroke-width:1.20000005;stroke-linecap:square;stroke-linejoin:miter;stroke-miterlimit:3.25;stroke-dasharray:none;stroke-opacity:1"
         d="M 129.609,106.93 V 66.66" /><path
         id="path72"
         style="fill:none;stroke:#0000ff;stroke-width:1.20000005;stroke-linecap:square;stroke-linejoin:miter;stroke-miterlimit:3.25;stroke-dasharray:none;stroke-opacity:1"
         d="M 129.609,66.66 V 26.391" /><path
         id="path74"
         style="fill:none;stroke:#0000ff;stroke-width:1.20000005;stroke-linecap:square;stroke-linejoin:miter;stroke-miterlimit:3.25;stroke-dasharray:none;stroke-opacity:1"
         d="M 203.145,133.594 V 90.113" /><path
         id="path76"
         style="fill:none;stroke:#0000ff;stroke-width:1.20000005;stroke-linecap:square;stroke-linejoin:miter;stroke-miterlimit:3.25;stroke-dasharray:none;stroke-opacity:1"
         d="M 203.145,90.113 V 46.633" /><path
         id="path78"
         style="fill:none;stroke:#0000ff;stroke-width:1.20000005;stroke-linecap:square;stroke-linejoin:miter;stroke-miterlimit:3.25;stroke-dasharray:none;stroke-opacity:1"
         d="M 276.676,132.379 V 89.039" /><path
         id="path80"
         style="fill:none;stroke:#0000ff;stroke-width:1.20000005;stroke-linecap:square;stroke-linejoin:miter;stroke-miterlimit:3.25;stroke-dasharray:none;stroke-opacity:1"
         d="M 276.676,89.039 V 45.695" /><path
         id="path82"
         style="fill:none;stroke:#0000ff;stroke-width:1.20000005;stroke-linecap:square;stroke-linejoin:miter;stroke-miterlimit:3.25;stroke-dasharray:none;stroke-opacity:1"
         d="M 350.207,155.352 V 109.48" /><path
         id="path84"
         style="fill:none;stroke:#0000ff;stroke-width:1.20000005;stroke-linecap:square;stroke-linejoin:miter;stroke-miterlimit:3.25;stroke-dasharray:none;stroke-opacity:1"
         d="M 350.207,109.48 V 63.609" /><path
         id="path86"
         style="fill:none;stroke:#0000ff;stroke-width:1.20000005;stroke-linecap:square;stroke-linejoin:miter;stroke-miterlimit:3.25;stroke-dasharray:none;stroke-opacity:1"
         d="m 129.609,26.391 h 3.602" /><path
         id="path88"
         style="fill:none;stroke:#0000ff;stroke-width:1.20000005;stroke-linecap:square;stroke-linejoin:miter;stroke-miterlimit:3.25;stroke-dasharray:none;stroke-opacity:1"
         d="m 129.609,26.391 h -3.597" /><path
         id="path90"
         style="fill:none;stroke:#0000ff;stroke-width:1.20000005;stroke-linecap:square;stroke-linejoin:miter;stroke-miterlimit:3.25;stroke-dasharray:none;stroke-opacity:1"
         d="m 129.609,106.93 h 3.602" /><path
         id="path92"
         style="fill:none;stroke:#0000ff;stroke-width:1.20000005;stroke-linecap:square;stroke-linejoin:miter;stroke-miterlimit:3.25;stroke-dasharray:none;stroke-opacity:1"
         d="m 129.609,106.93 h -3.597" /><path
         id="path94"
         style="fill:none;stroke:#0000ff;stroke-width:1.20000005;stroke-linecap:square;stroke-linejoin:miter;stroke-miterlimit:3.25;stroke-dasharray:none;stroke-opacity:1"
         d="m 203.145,46.633 h 3.597" /><path
         id="path96"
         style="fill:none;stroke:#0000ff;stroke-width:1.20000005;stroke-linecap:square;stroke-linejoin:miter;stroke-miterlimit:3.25;stroke-dasharray:none;stroke-opacity:1"
         d="m 203.145,46.633 h -3.602" /><path
         id="path98"
         style="fill:none;stroke:#0000ff;stroke-width:1.20000005;stroke-linecap:square;stroke-linejoin:miter;stroke-miterlimit:3.25;stroke-dasharray:none;stroke-opacity:1"
         d="m 203.145,133.594 h 3.597" /><path
         id="path100"
         style="fill:none;stroke:#0000ff;stroke-width:1.20000005;stroke-linecap:square;stroke-linejoin:miter;stroke-miterlimit:3.25;stroke-dasharray:none;stroke-opacity:1"
         d="m 203.145,133.594 h -3.602" /><path
         id="path102"
         style="fill:none;stroke:#0000ff;stroke-width:1.20000005;stroke-linecap:square;stroke-linejoin:miter;stroke-miterlimit:3.25;stroke-dasharray:none;stroke-opacity:1"
         d="m 276.676,45.695 h 3.601" /><path
         id="path104"
         style="fill:none;stroke:#0000ff;stroke-width:1.20000005;stroke-linecap:square;stroke-linejoin:miter;stroke-miterlimit:3.25;stroke-dasharray:none;stroke-opacity:1"
         d="m 276.676,45.695 h -3.602" /><path
         id="path106"
         style="fill:none;stroke:#0000ff;stroke-width:1.20000005;stroke-linecap:square;stroke-linejoin:miter;stroke-miterlimit:3.25;stroke-dasharray:none;stroke-opacity:1"
         d="m 276.676,132.379 h 3.601" /><path
         id="path108"
         style="fill:none;stroke:#0000ff;stroke-width:1.20000005;stroke-linecap:square;stroke-linejoin:miter;stroke-miterlimit:3.25;stroke-dasharray:none;stroke-opacity:1"
         d="m 276.676,132.379 h -3.602" /><path
         id="path110"
         style="fill:none;stroke:#0000ff;stroke-width:1.20000005;stroke-linecap:square;stroke-linejoin:miter;stroke-miterlimit:3.25;stroke-dasharray:none;stroke-opacity:1"
         d="m 350.207,63.609 h 3.602" /><path
         id="path112"
         style="fill:none;stroke:#0000ff;stroke-width:1.20000005;stroke-linecap:square;stroke-linejoin:miter;stroke-miterlimit:3.25;stroke-dasharray:none;stroke-opacity:1"
         d="m 350.207,63.609 h -3.598" /><path
         id="path114"
         style="fill:none;stroke:#0000ff;stroke-width:1.20000005;stroke-linecap:square;stroke-linejoin:miter;stroke-miterlimit:3.25;stroke-dasharray:none;stroke-opacity:1"
         d="m 350.207,155.352 h 3.602" /><path
         id="path116"
         style="fill:none;stroke:#0000ff;stroke-width:1.20000005;stroke-linecap:square;stroke-linejoin:miter;stroke-miterlimit:3.25;stroke-dasharray:none;stroke-opacity:1"
         d="m 350.207,155.352 h -3.598" /><path
         id="path118"
         style="fill:#0000ff;fill-opacity:1;fill-rule:evenodd;stroke:none"
         d="m 132.066,66.66 c 0,-0.652 -0.257,-1.277 -0.718,-1.738 -0.461,-0.461 -1.086,-0.719 -1.739,-0.719 -0.648,0 -1.277,0.258 -1.734,0.719 -0.461,0.461 -0.723,1.086 -0.723,1.738 0,0.653 0.262,1.278 0.723,1.738 0.457,0.461 1.086,0.719 1.734,0.719 0.653,0 1.278,-0.258 1.739,-0.719 0.461,-0.46 0.718,-1.085 0.718,-1.738 z" /><path
         id="path120"
         style="fill:#0000ff;fill-opacity:1;fill-rule:evenodd;stroke:none"
         d="m 205.602,90.113 c 0,-0.652 -0.262,-1.277 -0.719,-1.738 -0.461,-0.461 -1.086,-0.719 -1.738,-0.719 -0.653,0 -1.278,0.258 -1.739,0.719 -0.461,0.461 -0.718,1.086 -0.718,1.738 0,0.653 0.257,1.278 0.718,1.739 0.461,0.461 1.086,0.718 1.739,0.718 0.652,0 1.277,-0.257 1.738,-0.718 0.457,-0.461 0.719,-1.086 0.719,-1.739 z" /><path
         id="path122"
         style="fill:#0000ff;fill-opacity:1;fill-rule:evenodd;stroke:none"
         d="m 279.133,89.039 c 0,-0.652 -0.258,-1.277 -0.719,-1.738 -0.461,-0.461 -1.086,-0.719 -1.738,-0.719 -0.653,0 -1.278,0.258 -1.738,0.719 -0.461,0.461 -0.719,1.086 -0.719,1.738 0,0.652 0.258,1.277 0.719,1.738 0.46,0.461 1.085,0.719 1.738,0.719 0.652,0 1.277,-0.258 1.738,-0.719 0.461,-0.461 0.719,-1.086 0.719,-1.738 z" /><path
         id="path124"
         style="fill:#0000ff;fill-opacity:1;fill-rule:evenodd;stroke:none"
         d="m 352.664,109.48 c 0,-0.652 -0.258,-1.277 -0.719,-1.738 -0.461,-0.461 -1.086,-0.719 -1.738,-0.719 -0.652,0 -1.277,0.258 -1.738,0.719 -0.461,0.461 -0.719,1.086 -0.719,1.738 0,0.653 0.258,1.278 0.719,1.739 0.461,0.461 1.086,0.719 1.738,0.719 0.652,0 1.277,-0.258 1.738,-0.719 0.461,-0.461 0.719,-1.086 0.719,-1.739 z" /><path
         id="path126"
         style="fill:#ff8000;fill-opacity:1;fill-rule:evenodd;stroke:none"
         d="m 183.723,219.707 c 0,-0.793 -0.317,-1.559 -0.879,-2.121 -0.563,-0.563 -1.328,-0.879 -2.121,-0.879 -0.797,0 -1.559,0.316 -2.121,0.879 -0.563,0.562 -0.879,1.328 -0.879,2.121 0,0.797 0.316,1.563 0.879,2.125 0.562,0.563 1.324,0.875 2.121,0.875 0.793,0 1.558,-0.312 2.121,-0.875 0.562,-0.562 0.879,-1.328 0.879,-2.125 z" /><text
         id="text130"
         style="font-variant:normal;font-weight:normal;font-size:14.39999962px;font-family:Arial;-inkscape-font-specification:ArialMT;writing-mode:lr-tb;fill:#000000;fill-opacity:1;fill-rule:nonzero;stroke:none"
         transform="translate(193.9218,223.70894)"><tspan
           id="tspan128"
           y="0"
           x="0 11.9952 22.392 32.788799">MCNA</tspan></text>
<path
         id="path132"
         style="fill:#0000ff;fill-opacity:1;fill-rule:evenodd;stroke:none"
         d="m 261.098,219.707 c 0,-0.793 -0.317,-1.559 -0.879,-2.121 -0.563,-0.563 -1.324,-0.879 -2.121,-0.879 -0.797,0 -1.559,0.316 -2.121,0.879 -0.563,0.562 -0.879,1.328 -0.879,2.121 0,0.797 0.316,1.563 0.879,2.125 0.562,0.563 1.324,0.875 2.121,0.875 0.797,0 1.558,-0.312 2.121,-0.875 0.562,-0.562 0.879,-1.328 0.879,-2.125 z" /><text
         id="text136"
         style="font-variant:normal;font-weight:normal;font-size:14.39999962px;font-family:Arial;-inkscape-font-specification:ArialMT;writing-mode:lr-tb;fill:#000000;fill-opacity:1;fill-rule:nonzero;stroke:none"
         transform="translate(271.29695,223.70894)"><tspan
           id="tspan134"
           y="0"
           x="0 11.9952 22.392">MCA</tspan></text>
<path
         id="path138"
         style="fill:none;stroke:#666666;stroke-width:0.60000002;stroke-linecap:square;stroke-linejoin:miter;stroke-miterlimit:3.25;stroke-dasharray:none;stroke-opacity:1"
         d="M 431.398,237.297 H 48.418" /><path
         id="path140"
         style="fill:none;stroke:#666666;stroke-width:0.60000002;stroke-linecap:square;stroke-linejoin:miter;stroke-miterlimit:3.25;stroke-dasharray:none;stroke-opacity:1"
         d="M 48.418,237.297 V 0.602" /><path
         id="path142"
         style="fill:none;stroke:#666666;stroke-width:0.60000002;stroke-linecap:square;stroke-linejoin:miter;stroke-miterlimit:3.25;stroke-dasharray:none;stroke-opacity:1"
         d="m 48.418,0.602 h 382.98" /><path
         id="path144"
         style="fill:none;stroke:#666666;stroke-width:0.60000002;stroke-linecap:square;stroke-linejoin:miter;stroke-miterlimit:3.25;stroke-dasharray:none;stroke-opacity:1"
         d="M 431.398,0.602 V 237.297" /><path
         id="path146"
         style="fill:none;stroke:#666666;stroke-width:0.60000002;stroke-linecap:butt;stroke-linejoin:miter;stroke-miterlimit:3.25;stroke-dasharray:none;stroke-opacity:1"
         d="m 129.609,237.297 v -4.02" /><text
         id="text150"
         style="font-variant:normal;font-weight:normal;font-size:12px;font-family:Arial;-inkscape-font-specification:ArialMT;writing-mode:lr-tb;fill:#666666;fill-opacity:1;fill-rule:nonzero;stroke:none"
         transform="translate(126.27386,251.75871)"><tspan
           id="tspan148"
           y="0"
           x="0">3</tspan></text>
<path
         id="path152"
         style="fill:none;stroke:#666666;stroke-width:0.60000002;stroke-linecap:butt;stroke-linejoin:miter;stroke-miterlimit:3.25;stroke-dasharray:none;stroke-opacity:1"
         d="m 203.145,237.297 v -4.02" /><text
         id="text156"
         style="font-variant:normal;font-weight:normal;font-size:12px;font-family:Arial;-inkscape-font-specification:ArialMT;writing-mode:lr-tb;fill:#666666;fill-opacity:1;fill-rule:nonzero;stroke:none"
         transform="translate(199.80626,251.75871)"><tspan
           id="tspan154"
           y="0"
           x="0">5</tspan></text>
<path
         id="path158"
         style="fill:none;stroke:#666666;stroke-width:0.60000002;stroke-linecap:butt;stroke-linejoin:miter;stroke-miterlimit:3.25;stroke-dasharray:none;stroke-opacity:1"
         d="m 276.676,237.297 v -4.02" /><text
         id="text162"
         style="font-variant:normal;font-weight:normal;font-size:12px;font-family:Arial;-inkscape-font-specification:ArialMT;writing-mode:lr-tb;fill:#666666;fill-opacity:1;fill-rule:nonzero;stroke:none"
         transform="translate(273.33866,251.75871)"><tspan
           id="tspan160"
           y="0"
           x="0">7</tspan></text>
<path
         id="path164"
         style="fill:none;stroke:#666666;stroke-width:0.60000002;stroke-linecap:butt;stroke-linejoin:miter;stroke-miterlimit:3.25;stroke-dasharray:none;stroke-opacity:1"
         d="m 350.207,237.297 v -4.02" /><text
         id="text168"
         style="font-variant:normal;font-weight:normal;font-size:12px;font-family:Arial;-inkscape-font-specification:ArialMT;writing-mode:lr-tb;fill:#666666;fill-opacity:1;fill-rule:nonzero;stroke:none"
         transform="translate(343.53415,251.75871)"><tspan
           id="tspan166"
           y="0"
           x="0 6.6719999">10</tspan></text>
<path
         id="path170"
         style="fill:none;stroke:#666666;stroke-width:0.60000002;stroke-linecap:butt;stroke-linejoin:miter;stroke-miterlimit:3.25;stroke-dasharray:none;stroke-opacity:1"
         d="m 48.418,225.461 h 4.02" /><text
         id="text174"
         style="font-variant:normal;font-weight:normal;font-size:12px;font-family:Arial;-inkscape-font-specification:ArialMT;writing-mode:lr-tb;fill:#666666;fill-opacity:1;fill-rule:nonzero;stroke:none"
         transform="translate(21.463281,229.62081)"><tspan
           id="tspan172"
           y="0"
           x="0 6.6719999 9.9960003 16.667999">0.80</tspan></text>
<path
         id="path176"
         style="fill:none;stroke:#666666;stroke-width:0.60000002;stroke-linecap:butt;stroke-linejoin:miter;stroke-miterlimit:3.25;stroke-dasharray:none;stroke-opacity:1"
         d="m 48.418,211.258 h 2.41" /><path
         id="path178"
         style="fill:none;stroke:#666666;stroke-width:0.60000002;stroke-linecap:butt;stroke-linejoin:miter;stroke-miterlimit:3.25;stroke-dasharray:none;stroke-opacity:1"
         d="m 48.418,197.059 h 2.41" /><path
         id="path180"
         style="fill:none;stroke:#666666;stroke-width:0.60000002;stroke-linecap:butt;stroke-linejoin:miter;stroke-miterlimit:3.25;stroke-dasharray:none;stroke-opacity:1"
         d="m 48.418,182.855 h 2.41" /><path
         id="path182"
         style="fill:none;stroke:#666666;stroke-width:0.60000002;stroke-linecap:butt;stroke-linejoin:miter;stroke-miterlimit:3.25;stroke-dasharray:none;stroke-opacity:1"
         d="m 48.418,168.652 h 2.41" /><path
         id="path184"
         style="fill:none;stroke:#666666;stroke-width:0.60000002;stroke-linecap:butt;stroke-linejoin:miter;stroke-miterlimit:3.25;stroke-dasharray:none;stroke-opacity:1"
         d="m 48.418,154.453 h 4.02" /><text
         id="text188"
         style="font-variant:normal;font-weight:normal;font-size:12px;font-family:Arial;-inkscape-font-specification:ArialMT;writing-mode:lr-tb;fill:#666666;fill-opacity:1;fill-rule:nonzero;stroke:none"
         transform="translate(21.463281,158.61218)"><tspan
           id="tspan186"
           y="0"
           x="0 6.6719999 9.9960003 16.667999">0.85</tspan></text>
<path
         id="path190"
         style="fill:none;stroke:#666666;stroke-width:0.60000002;stroke-linecap:butt;stroke-linejoin:miter;stroke-miterlimit:3.25;stroke-dasharray:none;stroke-opacity:1"
         d="m 48.418,140.25 h 2.41" /><path
         id="path192"
         style="fill:none;stroke:#666666;stroke-width:0.60000002;stroke-linecap:butt;stroke-linejoin:miter;stroke-miterlimit:3.25;stroke-dasharray:none;stroke-opacity:1"
         d="m 48.418,126.047 h 2.41" /><path
         id="path194"
         style="fill:none;stroke:#666666;stroke-width:0.60000002;stroke-linecap:butt;stroke-linejoin:miter;stroke-miterlimit:3.25;stroke-dasharray:none;stroke-opacity:1"
         d="m 48.418,111.848 h 2.41" /><path
         id="path196"
         style="fill:none;stroke:#666666;stroke-width:0.60000002;stroke-linecap:butt;stroke-linejoin:miter;stroke-miterlimit:3.25;stroke-dasharray:none;stroke-opacity:1"
         d="m 48.418,97.645 h 2.41" /><path
         id="path198"
         style="fill:none;stroke:#666666;stroke-width:0.60000002;stroke-linecap:butt;stroke-linejoin:miter;stroke-miterlimit:3.25;stroke-dasharray:none;stroke-opacity:1"
         d="m 48.418,83.445 h 4.02" /><text
         id="text202"
         style="font-variant:normal;font-weight:normal;font-size:12px;font-family:Arial;-inkscape-font-specification:ArialMT;writing-mode:lr-tb;fill:#666666;fill-opacity:1;fill-rule:nonzero;stroke:none"
         transform="translate(21.463281,87.603557)"><tspan
           id="tspan200"
           y="0"
           x="0 6.6719999 9.9960003 16.667999">0.90</tspan></text>
<path
         id="path204"
         style="fill:none;stroke:#666666;stroke-width:0.60000002;stroke-linecap:butt;stroke-linejoin:miter;stroke-miterlimit:3.25;stroke-dasharray:none;stroke-opacity:1"
         d="m 48.418,69.242 h 2.41" /><path
         id="path206"
         style="fill:none;stroke:#666666;stroke-width:0.60000002;stroke-linecap:butt;stroke-linejoin:miter;stroke-miterlimit:3.25;stroke-dasharray:none;stroke-opacity:1"
         d="m 48.418,55.039 h 2.41" /><path
         id="path208"
         style="fill:none;stroke:#666666;stroke-width:0.60000002;stroke-linecap:butt;stroke-linejoin:miter;stroke-miterlimit:3.25;stroke-dasharray:none;stroke-opacity:1"
         d="m 48.418,40.84 h 2.41" /><path
         id="path210"
         style="fill:none;stroke:#666666;stroke-width:0.60000002;stroke-linecap:butt;stroke-linejoin:miter;stroke-miterlimit:3.25;stroke-dasharray:none;stroke-opacity:1"
         d="m 48.418,26.637 h 2.41" /><path
         id="path212"
         style="fill:none;stroke:#666666;stroke-width:0.60000002;stroke-linecap:butt;stroke-linejoin:miter;stroke-miterlimit:3.25;stroke-dasharray:none;stroke-opacity:1"
         d="m 48.418,12.434 h 4.02" /><text
         id="text216"
         style="font-variant:normal;font-weight:normal;font-size:12px;font-family:Arial;-inkscape-font-specification:ArialMT;writing-mode:lr-tb;fill:#666666;fill-opacity:1;fill-rule:nonzero;stroke:none"
         transform="translate(21.463281,16.594928)"><tspan
           id="tspan214"
           y="0"
           x="0 6.6719999 9.9960003 16.667999">0.95</tspan></text>
<path
         id="path218"
         style="fill:none;stroke:#666666;stroke-width:0.60000002;stroke-linecap:butt;stroke-linejoin:miter;stroke-miterlimit:3.25;stroke-dasharray:none;stroke-opacity:1"
         d="M 56.078,0.602 V 4.617" /><path
         id="path220"
         style="fill:none;stroke:#666666;stroke-width:0.60000002;stroke-linecap:butt;stroke-linejoin:miter;stroke-miterlimit:3.25;stroke-dasharray:none;stroke-opacity:1"
         d="m 70.785,0.602 v 2.41" /><path
         id="path222"
         style="fill:none;stroke:#666666;stroke-width:0.60000002;stroke-linecap:butt;stroke-linejoin:miter;stroke-miterlimit:3.25;stroke-dasharray:none;stroke-opacity:1"
         d="m 85.492,0.602 v 2.41" /><path
         id="path224"
         style="fill:none;stroke:#666666;stroke-width:0.60000002;stroke-linecap:butt;stroke-linejoin:miter;stroke-miterlimit:3.25;stroke-dasharray:none;stroke-opacity:1"
         d="m 100.199,0.602 v 2.41" /><path
         id="path226"
         style="fill:none;stroke:#666666;stroke-width:0.60000002;stroke-linecap:butt;stroke-linejoin:miter;stroke-miterlimit:3.25;stroke-dasharray:none;stroke-opacity:1"
         d="m 114.902,0.602 v 2.41" /><path
         id="path228"
         style="fill:none;stroke:#666666;stroke-width:0.60000002;stroke-linecap:butt;stroke-linejoin:miter;stroke-miterlimit:3.25;stroke-dasharray:none;stroke-opacity:1"
         d="M 129.609,0.602 V 4.617" /><path
         id="path230"
         style="fill:none;stroke:#666666;stroke-width:0.60000002;stroke-linecap:butt;stroke-linejoin:miter;stroke-miterlimit:3.25;stroke-dasharray:none;stroke-opacity:1"
         d="m 144.316,0.602 v 2.41" /><path
         id="path232"
         style="fill:none;stroke:#666666;stroke-width:0.60000002;stroke-linecap:butt;stroke-linejoin:miter;stroke-miterlimit:3.25;stroke-dasharray:none;stroke-opacity:1"
         d="m 159.023,0.602 v 2.41" /><path
         id="path234"
         style="fill:none;stroke:#666666;stroke-width:0.60000002;stroke-linecap:butt;stroke-linejoin:miter;stroke-miterlimit:3.25;stroke-dasharray:none;stroke-opacity:1"
         d="m 173.73,0.602 v 2.41" /><path
         id="path236"
         style="fill:none;stroke:#666666;stroke-width:0.60000002;stroke-linecap:butt;stroke-linejoin:miter;stroke-miterlimit:3.25;stroke-dasharray:none;stroke-opacity:1"
         d="m 188.438,0.602 v 2.41" /><path
         id="path238"
         style="fill:none;stroke:#666666;stroke-width:0.60000002;stroke-linecap:butt;stroke-linejoin:miter;stroke-miterlimit:3.25;stroke-dasharray:none;stroke-opacity:1"
         d="M 203.145,0.602 V 4.617" /><path
         id="path240"
         style="fill:none;stroke:#666666;stroke-width:0.60000002;stroke-linecap:butt;stroke-linejoin:miter;stroke-miterlimit:3.25;stroke-dasharray:none;stroke-opacity:1"
         d="m 217.852,0.602 v 2.41" /><path
         id="path242"
         style="fill:none;stroke:#666666;stroke-width:0.60000002;stroke-linecap:butt;stroke-linejoin:miter;stroke-miterlimit:3.25;stroke-dasharray:none;stroke-opacity:1"
         d="m 232.555,0.602 v 2.41" /><path
         id="path244"
         style="fill:none;stroke:#666666;stroke-width:0.60000002;stroke-linecap:butt;stroke-linejoin:miter;stroke-miterlimit:3.25;stroke-dasharray:none;stroke-opacity:1"
         d="m 247.262,0.602 v 2.41" /><path
         id="path246"
         style="fill:none;stroke:#666666;stroke-width:0.60000002;stroke-linecap:butt;stroke-linejoin:miter;stroke-miterlimit:3.25;stroke-dasharray:none;stroke-opacity:1"
         d="m 261.969,0.602 v 2.41" /><path
         id="path248"
         style="fill:none;stroke:#666666;stroke-width:0.60000002;stroke-linecap:butt;stroke-linejoin:miter;stroke-miterlimit:3.25;stroke-dasharray:none;stroke-opacity:1"
         d="M 276.676,0.602 V 4.617" /><path
         id="path250"
         style="fill:none;stroke:#666666;stroke-width:0.60000002;stroke-linecap:butt;stroke-linejoin:miter;stroke-miterlimit:3.25;stroke-dasharray:none;stroke-opacity:1"
         d="m 291.383,0.602 v 2.41" /><path
         id="path252"
         style="fill:none;stroke:#666666;stroke-width:0.60000002;stroke-linecap:butt;stroke-linejoin:miter;stroke-miterlimit:3.25;stroke-dasharray:none;stroke-opacity:1"
         d="m 306.09,0.602 v 2.41" /><path
         id="path254"
         style="fill:none;stroke:#666666;stroke-width:0.60000002;stroke-linecap:butt;stroke-linejoin:miter;stroke-miterlimit:3.25;stroke-dasharray:none;stroke-opacity:1"
         d="m 320.797,0.602 v 2.41" /><path
         id="path256"
         style="fill:none;stroke:#666666;stroke-width:0.60000002;stroke-linecap:butt;stroke-linejoin:miter;stroke-miterlimit:3.25;stroke-dasharray:none;stroke-opacity:1"
         d="m 335.5,0.602 v 2.41" /><path
         id="path258"
         style="fill:none;stroke:#666666;stroke-width:0.60000002;stroke-linecap:butt;stroke-linejoin:miter;stroke-miterlimit:3.25;stroke-dasharray:none;stroke-opacity:1"
         d="M 350.207,0.602 V 4.617" /><path
         id="path260"
         style="fill:none;stroke:#666666;stroke-width:0.60000002;stroke-linecap:butt;stroke-linejoin:miter;stroke-miterlimit:3.25;stroke-dasharray:none;stroke-opacity:1"
         d="m 364.914,0.602 v 2.41" /><path
         id="path262"
         style="fill:none;stroke:#666666;stroke-width:0.60000002;stroke-linecap:butt;stroke-linejoin:miter;stroke-miterlimit:3.25;stroke-dasharray:none;stroke-opacity:1"
         d="m 379.621,0.602 v 2.41" /><path
         id="path264"
         style="fill:none;stroke:#666666;stroke-width:0.60000002;stroke-linecap:butt;stroke-linejoin:miter;stroke-miterlimit:3.25;stroke-dasharray:none;stroke-opacity:1"
         d="m 394.328,0.602 v 2.41" /><path
         id="path266"
         style="fill:none;stroke:#666666;stroke-width:0.60000002;stroke-linecap:butt;stroke-linejoin:miter;stroke-miterlimit:3.25;stroke-dasharray:none;stroke-opacity:1"
         d="m 409.035,0.602 v 2.41" /><path
         id="path268"
         style="fill:none;stroke:#666666;stroke-width:0.60000002;stroke-linecap:butt;stroke-linejoin:miter;stroke-miterlimit:3.25;stroke-dasharray:none;stroke-opacity:1"
         d="M 423.742,0.602 V 4.617" /><path
         id="path270"
         style="fill:none;stroke:#666666;stroke-width:0.60000002;stroke-linecap:butt;stroke-linejoin:miter;stroke-miterlimit:3.25;stroke-dasharray:none;stroke-opacity:1"
         d="m 431.398,225.461 h -4.015" /><path
         id="path272"
         style="fill:none;stroke:#666666;stroke-width:0.60000002;stroke-linecap:butt;stroke-linejoin:miter;stroke-miterlimit:3.25;stroke-dasharray:none;stroke-opacity:1"
         d="m 431.398,211.258 h -2.41" /><path
         id="path274"
         style="fill:none;stroke:#666666;stroke-width:0.60000002;stroke-linecap:butt;stroke-linejoin:miter;stroke-miterlimit:3.25;stroke-dasharray:none;stroke-opacity:1"
         d="m 431.398,197.059 h -2.41" /><path
         id="path276"
         style="fill:none;stroke:#666666;stroke-width:0.60000002;stroke-linecap:butt;stroke-linejoin:miter;stroke-miterlimit:3.25;stroke-dasharray:none;stroke-opacity:1"
         d="m 431.398,182.855 h -2.41" /><path
         id="path278"
         style="fill:none;stroke:#666666;stroke-width:0.60000002;stroke-linecap:butt;stroke-linejoin:miter;stroke-miterlimit:3.25;stroke-dasharray:none;stroke-opacity:1"
         d="m 431.398,168.652 h -2.41" /><path
         id="path280"
         style="fill:none;stroke:#666666;stroke-width:0.60000002;stroke-linecap:butt;stroke-linejoin:miter;stroke-miterlimit:3.25;stroke-dasharray:none;stroke-opacity:1"
         d="m 431.398,154.453 h -4.015" /><path
         id="path282"
         style="fill:none;stroke:#666666;stroke-width:0.60000002;stroke-linecap:butt;stroke-linejoin:miter;stroke-miterlimit:3.25;stroke-dasharray:none;stroke-opacity:1"
         d="m 431.398,140.25 h -2.41" /><path
         id="path284"
         style="fill:none;stroke:#666666;stroke-width:0.60000002;stroke-linecap:butt;stroke-linejoin:miter;stroke-miterlimit:3.25;stroke-dasharray:none;stroke-opacity:1"
         d="m 431.398,126.047 h -2.41" /><path
         id="path286"
         style="fill:none;stroke:#666666;stroke-width:0.60000002;stroke-linecap:butt;stroke-linejoin:miter;stroke-miterlimit:3.25;stroke-dasharray:none;stroke-opacity:1"
         d="m 431.398,111.848 h -2.41" /><path
         id="path288"
         style="fill:none;stroke:#666666;stroke-width:0.60000002;stroke-linecap:butt;stroke-linejoin:miter;stroke-miterlimit:3.25;stroke-dasharray:none;stroke-opacity:1"
         d="m 431.398,97.645 h -2.41" /><path
         id="path290"
         style="fill:none;stroke:#666666;stroke-width:0.60000002;stroke-linecap:butt;stroke-linejoin:miter;stroke-miterlimit:3.25;stroke-dasharray:none;stroke-opacity:1"
         d="m 431.398,83.445 h -4.015" /><path
         id="path292"
         style="fill:none;stroke:#666666;stroke-width:0.60000002;stroke-linecap:butt;stroke-linejoin:miter;stroke-miterlimit:3.25;stroke-dasharray:none;stroke-opacity:1"
         d="m 431.398,69.242 h -2.41" /><path
         id="path294"
         style="fill:none;stroke:#666666;stroke-width:0.60000002;stroke-linecap:butt;stroke-linejoin:miter;stroke-miterlimit:3.25;stroke-dasharray:none;stroke-opacity:1"
         d="m 431.398,55.039 h -2.41" /><path
         id="path296"
         style="fill:none;stroke:#666666;stroke-width:0.60000002;stroke-linecap:butt;stroke-linejoin:miter;stroke-miterlimit:3.25;stroke-dasharray:none;stroke-opacity:1"
         d="m 431.398,40.84 h -2.41" /><path
         id="path298"
         style="fill:none;stroke:#666666;stroke-width:0.60000002;stroke-linecap:butt;stroke-linejoin:miter;stroke-miterlimit:3.25;stroke-dasharray:none;stroke-opacity:1"
         d="m 431.398,26.637 h -2.41" /><path
         id="path300"
         style="fill:none;stroke:#666666;stroke-width:0.60000002;stroke-linecap:butt;stroke-linejoin:miter;stroke-miterlimit:3.25;stroke-dasharray:none;stroke-opacity:1"
         d="m 431.398,12.434 h -4.015" /><text
         id="text304"
         style="font-variant:normal;font-weight:normal;font-size:12px;font-family:Arial;-inkscape-font-specification:ArialMT;writing-mode:lr-tb;fill:#666666;fill-opacity:1;fill-rule:nonzero;stroke:none"
         transform="translate(235.57637,271.76496)"><tspan
           id="tspan302"
           y="0"
           x="0">N</tspan></text>
<text
         id="text308"
         style="font-variant:normal;font-weight:normal;font-size:12px;font-family:Arial;-inkscape-font-specification:ArialMT;writing-mode:lr-tb;fill:#666666;fill-opacity:1;fill-rule:nonzero;stroke:none"
         transform="rotate(-90,109.65647,98.793193)"><tspan
           id="tspan306"
           y="0"
           x="0 7.9920001 11.988 18.66 28.667999 35.34 42.408001 51.071999 57.743999 64.416 70.416 77.087997 81.084 87.755997 94.428001 101.1 107.1">ProbofConvergence</tspan></text>
<text
         id="text312"
         style="font-variant:normal;font-weight:normal;font-size:12px;font-family:MathematicaSans;-inkscape-font-specification:MathematicaSans;writing-mode:lr-tb;fill:#666666;fill-opacity:1;fill-rule:nonzero;stroke:none"
         transform="rotate(-90,51.102474,40.239193)"><tspan
           id="tspan310"
           y="0"
           x="0">±</tspan></text>
<text
         id="text316"
         style="font-variant:normal;font-weight:normal;font-size:12px;font-family:Arial;-inkscape-font-specification:ArialMT;writing-mode:lr-tb;fill:#666666;fill-opacity:1;fill-rule:nonzero;stroke:none"
         transform="rotate(-90,45.936475,35.073194)"><tspan
           id="tspan314"
           y="0"
           x="0 7.9920001 11.316 17.988001 24.648001 32.639999 36.636002 40.632 47.304001">Std.Error</tspan></text>
</g></g></svg>